# xmcd CD database file
#
# Track frame offsets:
#	150
#	35842
#	64857
#	92952
#	132445
#	157217
#
# Disc length: 2450 seconds
#
# Revision: 0
# Processed by: cddbd v1.5.2PL0 Copyright (c) Steve Scherf et al.
# Submitted via: CDex 1.51
#
DISCID=59099006
DTITLE=Irakere - Coleccion Vol. 9
DYEAR=1995
DGENRE=Jazz
TTITLE0=Rucu Rucu a Santa Clara - Rucu Rucu - Jose Luis Cortes
TTITLE1=Boliviana - Bolero Son - Chucho Valdes
TTITLE2=Bailando Asi - Son - Manolo de Valle
TTITLE3=Homenaje al Benny - Son - Chucho Valdes
TTITLE4=Te Toco Perder - Zamba - Chucho Valdes
TTITLE5=Por Culpa del Guao - Merengue - Remberto Beker
EXTD=YEAR: 1995
EXTT0=
EXTT1=
EXTT2=
EXTT3=
EXTT4=
EXTT5=
PLAYORDER=
